<svg id="_x31_" enable-background="new 0 0 24 24" height="512" viewBox="0 0 24 24" width="512" xmlns="http://www.w3.org/2000/svg"><g><path d="m14 17h-8c-1.103 0-2-.897-2-2v-6c0-1.103.897-2 2-2h8c1.103 0 2 .897 2 2v6c0 1.103-.897 2-2 2zm-8-9c-.552 0-1 .449-1 1v6c0 .551.448 1 1 1h8c.552 0 1-.449 1-1v-6c0-.551-.448-1-1-1z"/></g><g><path d="m19 16.098c-.184 0-.368-.051-.529-.152l-3.235-2.022c-.234-.146-.306-.455-.159-.689.146-.235.457-.304.688-.159l3.235 2.022v-6.196l-3.235 2.021c-.231.147-.542.077-.688-.159-.146-.234-.075-.543.159-.689l3.235-2.022c.309-.192.697-.202 1.015-.027.317.178.514.513.514.876v6.195c0 .363-.197.699-.515.875-.151.084-.318.126-.485.126z"/></g><g><path d="m12 24c-6.617 0-12-5.383-12-12s5.383-12 12-12 12 5.383 12 12-5.383 12-12 12zm0-23c-6.065 0-11 4.935-11 11s4.935 11 11 11 11-4.935 11-11-4.935-11-11-11z"/></g></svg>